<svg width="28" height="28" viewBox="0 0 28 28" fill="currentColor" xmlns="http://www.w3.org/2000/svg">
<path d="M28 27.965L22.435 22.4H7.7C7.1225 22.4 6.62818 22.1943 6.21705 21.7829C5.80568 21.3718 5.6 20.8775 5.6 20.3V17.5H21C21.5775 17.5 22.0719 17.2943 22.4833 16.8829C22.8944 16.4718 23.1 15.9775 23.1 15.4V5.6H25.9C26.4775 5.6 26.9719 5.80557 27.3833 6.2167C27.7944 6.62807 28 7.1225 28 7.7V27.965ZM2.1 15.925L4.725 13.3H18.9V2.1H2.1V15.925ZM0 21V2.1C0 1.5225 0.205683 1.02807 0.61705 0.6167C1.02818 0.205566 1.5225 0 2.1 0H18.9C19.4775 0 19.9719 0.205566 20.3833 0.6167C20.7944 1.02807 21 1.5225 21 2.1V13.3C21 13.8775 20.7944 14.3718 20.3833 14.7829C19.9719 15.1943 19.4775 15.4 18.9 15.4H5.6L0 21Z"/>
</svg>
