<svg width="32" height="15" viewBox="0 0 32 15" fill="currentColor" xmlns="http://www.w3.org/2000/svg">
<path d="M7.06667 14.6667C5.06667 14.6667 3.38889 13.9389 2.03333 12.4833C0.677778 11.0278 0 9.28889 0 7.26667C0 5.26667 0.683333 3.55556 2.05 2.13333C3.41667 0.711111 5.08889 0 7.06667 0C7.86667 0 8.63889 0.133333 9.38333 0.4C10.1278 0.666667 10.7889 1.07778 11.3667 1.63333L14.4667 4.63333L13.0667 6.03333L10.1 3.13333C9.7 2.73333 9.23889 2.44444 8.71667 2.26667C8.19444 2.08889 7.64444 2 7.06667 2C5.64444 2 4.44444 2.51667 3.46667 3.55C2.48889 4.58333 2 5.82222 2 7.26667C2 8.73333 2.48333 10 3.45 11.0667C4.41667 12.1333 5.62222 12.6667 7.06667 12.6667C7.62222 12.6667 8.16111 12.5778 8.68333 12.4C9.20556 12.2222 9.67778 11.9444 10.1 11.5667L20.6333 1.63333C21.2111 1.07778 21.8722 0.666667 22.6167 0.4C23.3611 0.133333 24.1222 0 24.9 0C26.9 0 28.5833 0.711111 29.95 2.13333C31.3167 3.55556 32 5.26667 32 7.26667C32 9.28889 31.3167 11.0278 29.95 12.4833C28.5833 13.9389 26.9 14.6667 24.9 14.6667C24.1222 14.6667 23.3556 14.5389 22.6 14.2833C21.8444 14.0278 21.1889 13.6222 20.6333 13.0667L17.6 10.0667L19 8.66667L21.9 11.5667C22.2778 11.9444 22.7333 12.2222 23.2667 12.4C23.8 12.5778 24.3444 12.6667 24.9 12.6667C26.3444 12.6667 27.5556 12.1333 28.5333 11.0667C29.5111 10 30 8.73333 30 7.26667C30 5.82222 29.5056 4.58333 28.5167 3.55C27.5278 2.51667 26.3222 2 24.9 2C24.3444 2 23.8056 2.1 23.2833 2.3C22.7611 2.5 22.3 2.78889 21.9 3.16667L11.3667 13.1C10.7889 13.6333 10.1222 14.0278 9.36667 14.2833C8.61111 14.5389 7.84444 14.6667 7.06667 14.6667Z"/>
</svg>
