<svg width="32" height="32" viewBox="0 0 32 32" fill="currentColor" xmlns="http://www.w3.org/2000/svg">
<path d="M12.7624 23.2C15.6408 23.2 18.1 22.1849 20.14 20.1548C22.18 18.1249 23.2 15.66 23.2 12.76C23.2 9.88213 22.18 7.436 20.14 5.4216C18.1 3.4072 15.6408 2.4 12.7624 2.4C9.884 2.4 7.43733 3.4072 5.4224 5.4216C3.40747 7.436 2.4 9.88213 2.4 12.76C2.4 15.66 3.40747 18.1249 5.4224 20.1548C7.43733 22.1849 9.884 23.2 12.7624 23.2ZM11.6 17.28V6.6H14V17.28H11.6ZM5.8 17.28V9.92H8.2V17.28H5.8ZM17.4 17.28V11.56H19.8V17.28H17.4ZM30.28 32L20.96 22.64C19.84 23.5733 18.5835 24.3 17.1904 24.82C15.7971 25.34 14.3203 25.6 12.76 25.6C9.21333 25.6 6.2 24.3533 3.72 21.86C1.24 19.3667 0 16.3373 0 12.772C0 9.2064 1.23733 6.1864 3.712 3.712C6.1864 1.23733 9.2064 0 12.772 0C16.3373 0 19.3667 1.24 21.86 3.72C24.3533 6.2 25.6 9.21333 25.6 12.76C25.6 14.3203 25.34 15.7971 24.82 17.1904C24.3 18.5835 23.5733 19.84 22.64 20.96L31.96 30.28L30.28 32Z"/>
</svg>